<svg xmlns="http://www.w3.org/2000/svg" width="16" height="17.778" viewBox="0 0 16 17.778">
  <path id="ic_assignment_turned_in_24px" d="M17.222,2.778H13.507a2.656,2.656,0,0,0-5.013,0H4.778A1.783,1.783,0,0,0,3,4.556V17a1.783,1.783,0,0,0,1.778,1.778H17.222A1.783,1.783,0,0,0,19,17V4.556A1.783,1.783,0,0,0,17.222,2.778ZM11,2.778a.889.889,0,1,1-.889.889A.892.892,0,0,1,11,2.778ZM9.222,15.222,5.667,11.667,6.92,10.413l2.3,2.293L15.08,6.849l1.253,1.262Z" transform="translate(-3 -1)" fill="#75a4ef"/>
</svg>
