<svg xmlns="http://www.w3.org/2000/svg" width="16" height="16" viewBox="0 0 16 16">
  <g id="Group_498" data-name="Group 498" transform="translate(2333 -9408)">
    <rect id="Rectangle_397" data-name="Rectangle 397" width="16" height="16" transform="translate(-2333 9408)" fill="none"/>
    <g id="Group_849" data-name="Group 849" transform="translate(-2738.5 9193)">
      <path id="Path_130" data-name="Path 130" d="M410.21,224.52h-.35v.67h.35a.872.872,0,0,0,.44-.07.28.28,0,0,0,.11-.26.309.309,0,0,0-.1-.27A.944.944,0,0,0,410.21,224.52Z" fill="#838ea1"/>
      <path id="Path_131" data-name="Path 131" d="M415.13,216h-7.27a1.361,1.361,0,0,0-1.36,1.36v11.28a1.361,1.361,0,0,0,1.36,1.36h11.28a1.361,1.361,0,0,0,1.36-1.36V221h-5.38Zm-3.68,9.71a1.371,1.371,0,0,1-.95.3h-.64v1.01H408.8V223.7h1.36a3.451,3.451,0,0,1,.72.06,1.1,1.1,0,0,1,.44.17.977.977,0,0,1,.35.38,1.349,1.349,0,0,1,.11.55A1.086,1.086,0,0,1,411.45,225.71Zm4.37-2.01h2.51v.84h-1.45v.51h1.15v.8h-1.15v1.17h-1.06Zm-.66.76a2.239,2.239,0,0,1,.17.91,1.817,1.817,0,0,1-.22.94,1.254,1.254,0,0,1-.63.57,1.348,1.348,0,0,1-.41.11,7.08,7.08,0,0,1-.78.03H412.2V223.7h1.29a4.177,4.177,0,0,1,.73.05,1.594,1.594,0,0,1,.42.14A1.363,1.363,0,0,1,415.16,224.46Z" fill="#838ea1"/>
      <path id="Path_132" data-name="Path 132" d="M413.57,224.54h-.3v1.64h.28a.723.723,0,0,0,.56-.18,1,1,0,0,0,.15-.63.986.986,0,0,0-.16-.64A.666.666,0,0,0,413.57,224.54Z" fill="#838ea1"/>
      <path id="Path_133" data-name="Path 133" d="M416.5,216v4h4Z" fill="#838ea1"/>
    </g>
  </g>
</svg>
