<svg xmlns="http://www.w3.org/2000/svg" width="20" height="24" viewBox="0 0 20 24">
  <g id="download" transform="translate(-48)">
    <g id="Group_879" data-name="Group 879" transform="translate(50.474)">
      <g id="Group_878" data-name="Group 878" transform="translate(0)">
        <path id="Path_135" data-name="Path 135" d="M112.323,10.734l-1.114-1.2a.88.88,0,0,0-1.191-.074l-3.32,2.755V.8a.824.824,0,0,0-.845-.8h-1.69a.824.824,0,0,0-.845.8V12.216L100,9.461a.88.88,0,0,0-1.191.074l-1.114,1.2a.771.771,0,0,0,.078,1.131l6.682,5.538a.882.882,0,0,0,1.114,0l6.68-5.538A.77.77,0,0,0,112.323,10.734Z" transform="translate(-97.482 0)" fill="#838ea1"/>
      </g>
    </g>
    <g id="Group_881" data-name="Group 881" transform="translate(48 20.8)">
      <g id="Group_880" data-name="Group 880">
        <path id="Path_136" data-name="Path 136" d="M67.167,416H48.833a.817.817,0,0,0-.833.8v1.6a.817.817,0,0,0,.833.8H67.167a.817.817,0,0,0,.833-.8v-1.6A.817.817,0,0,0,67.167,416Z" transform="translate(-48 -416)" fill="#838ea1"/>
      </g>
    </g>
  </g>
</svg>
