<svg xmlns="http://www.w3.org/2000/svg" width="331.928" height="144.737" viewBox="0 0 331.928 144.737">
  <g id="Group_101" data-name="Group 101" transform="translate(-798.584 -166.793)">
    <text id="_TM" data-name="| TM" transform="translate(969.512 265.914)" fill="#75a4ef" font-size="75" font-family="SegoeUI-Bold, Segoe UI" font-weight="700"><tspan x="0" y="0">| TM</tspan></text>
    <g id="Group_98" data-name="Group 98" transform="translate(798.584 166.793)">
      <g id="Group_87" data-name="Group 87" transform="translate(0 0)">
        <g id="Group_86" data-name="Group 86" transform="translate(0 0)">
          <g id="Group_84" data-name="Group 84">
            <path id="Path_11" data-name="Path 11" d="M514.18,214.7a72.47,72.47,0,1,1-24.549-54.262l-20.448,20.449a43.445,43.445,0,1,0,13.949,47.421,6.1,6.1,0,0,1,1.471-2.454l26.035-26.036a1.261,1.261,0,0,1,2.122.617A70.874,70.874,0,0,1,514.18,214.7Z" transform="translate(-369.497 -142.332)" fill="#fff"/>
          </g>
          <g id="Group_85" data-name="Group 85" transform="translate(52.474 18.105)">
            <path id="Path_12" data-name="Path 12" d="M500.405,177.976a1.06,1.06,0,0,1-.179,1.261l-21.43,21.43L453.4,226.785a6.123,6.123,0,0,1-4.391,1.856H418.3a1.042,1.042,0,0,1-.743-1.773l46.91-47.607,20.448-20.449A71.914,71.914,0,0,1,500.405,177.976Z" transform="translate(-417.261 -158.812)" fill="#75a4ef"/>
          </g>
        </g>
      </g>
    </g>
  </g>
</svg>
