<svg xmlns="http://www.w3.org/2000/svg" width="12" height="12" viewBox="0 0 12 12">
  <g id="star" transform="translate(1.001 -0.047)" fill="#e2c25d">
    <path d="M 7.645847320556641 11.54700374603271 C 7.444507598876953 11.54700374603271 7.251227378845215 11.49687385559082 7.071377277374268 11.39799404144287 L 4.999307155609131 10.26091194152832 L 2.927117586135864 11.39817333221436 C 2.752787590026855 11.49379348754883 2.555497407913208 11.54431343078613 2.356487512588501 11.54431343078613 C 1.988957524299622 11.54431343078613 1.645147442817688 11.37930393218994 1.413227438926697 11.09159374237061 C 1.185227513313293 10.80954360961914 1.092597484588623 10.45338344573975 1.152827501296997 10.08925342559814 L 1.552995204925537 7.6523756980896 L -0.1403625011444092 5.9295334815979 C -0.4664525091648102 5.597833633422852 -0.5822924971580505 5.112663745880127 -0.4426625072956085 4.663383483886719 C -0.3000524938106537 4.205623626708984 0.07609749585390091 3.877923488616943 0.5390874743461609 3.807863473892212 L 2.86178183555603 3.455591440200806 L 3.904317378997803 1.250463604927063 C 4.109267711639404 0.8166135549545288 4.528867721557617 0.5470035672187805 4.999307632446289 0.5470035672187805 C 5.469867706298828 0.5470035672187805 5.889547348022461 0.8166135549545288 6.09456729888916 1.250613570213318 L 7.136841773986816 3.455410242080688 L 9.459487915039063 3.807673454284668 C 9.922547340393066 3.878053665161133 10.29856777191162 4.205733776092529 10.44097709655762 4.6628737449646 C 10.58071708679199 5.112453460693359 10.46486759185791 5.597623348236084 10.138747215271 5.929353713989258 L 8.44542407989502 7.652361869812012 L 8.845877647399902 10.08979320526123 C 8.906167030334473 10.45355319976807 8.813457489013672 10.80986309051514 8.58472728729248 11.09241390228271 C 8.351747512817383 11.38109397888184 8.009367942810059 11.54700374603271 7.645847320556641 11.54700374603271 Z" stroke="none"/>
    <path d="M 4.999307632446289 1.047003746032715 C 4.7245774269104 1.047003746032715 4.477887630462646 1.206883430480957 4.356347560882568 1.464173316955566 L 3.273657321929932 3.754223823547363 C 3.227597713470459 3.851833343505859 3.138297557830811 3.919343948364258 3.035177707672119 3.935013771057129 L 0.6138973236083984 4.302233695983887 C 0.3417778015136719 4.343413352966309 0.1199073791503906 4.538623332977295 0.03480720520019531 4.811783790588379 C -0.05009269714355469 5.084953784942627 0.01938724517822266 5.378813743591309 0.2162275314331055 5.579043388366699 L 1.968107223510742 7.361423492431641 C 2.042797565460205 7.437503337860107 2.077037334442139 7.547023773193359 2.059417724609375 7.654033660888672 L 1.646127700805664 10.17085361480713 C 1.609477043151855 10.3924036026001 1.66514778137207 10.60788345336914 1.802507400512695 10.77780342102051 C 1.941281318664551 10.9499683380127 2.147401809692383 11.04431629180908 2.356482028961182 11.04431629180908 C 2.468991279602051 11.04431629180908 2.582318782806396 11.01702404022217 2.686557292938232 10.95984363555908 L 4.851927280426025 9.771443367004395 C 4.897083282470703 9.746732711791992 4.948081016540527 9.734455108642578 4.999054908752441 9.734453201293945 C 5.050253391265869 9.734451293945313 5.101428508758545 9.746834754943848 5.146677494049072 9.771443367004395 L 7.312257766723633 10.95984363555908 C 7.417577743530273 11.01774406433105 7.52991771697998 11.04700374603271 7.645847320556641 11.04700374603271 C 7.857507705688477 11.04700374603271 8.058137893676758 10.94876384735107 8.196107864379883 10.77780342102051 C 8.333667755126953 10.60788345336914 8.389137268066406 10.39198303222656 8.352487564086914 10.17085361480713 L 7.938997268676758 7.654033660888672 C 7.921377182006836 7.546813488006592 7.955617427825928 7.437503337860107 8.030307769775391 7.361423492431641 L 9.782187461853027 5.57883358001709 C 9.97902774810791 5.378603458404541 10.04850769042969 5.084743499755859 9.963607788085938 4.811583518981934 C 9.878507614135742 4.538413524627686 9.656837463378906 4.343413352966309 9.384517669677734 4.302023410797119 L 6.963237762451172 3.93480396270752 C 6.860117435455322 3.919133186340332 6.771007537841797 3.85162353515625 6.724957466125488 3.754023551940918 L 5.642467498779297 1.464173316955566 C 5.520927429199219 1.206883430480957 5.274237632751465 1.047003746032715 4.999307632446289 1.047003746032715 M 4.999307632446289 0.04700374603271484 C 5.665267467498779 0.04700374603271484 6.258187294006348 0.4263639450073242 6.546657562255859 1.037043571472168 L 7.47508430480957 3.000997543334961 L 9.534467697143555 3.313333511352539 C 10.18840789794922 3.412723541259766 10.71855735778809 3.872833251953125 10.91834735870361 4.514153480529785 C 11.11293792724609 5.140233516693115 10.95076751708984 5.816573619842529 10.49530792236328 6.279873371124268 L 8.979959487915039 7.821786880493164 L 9.33925724029541 10.00873374938965 C 9.421907424926758 10.50740337371826 9.288617134094238 11.01757335662842 8.973337173461914 11.40701389312744 C 8.64545726776123 11.81330394744873 8.161257743835449 12.04700374603271 7.645847320556641 12.04700374603271 C 7.35932731628418 12.04700374603271 7.085007667541504 11.97606372833252 6.830507278442383 11.83615398406982 L 4.999315738677979 10.83125305175781 L 3.167677402496338 11.83649349212646 C 2.919767379760742 11.97248363494873 2.639327526092529 12.04431343078613 2.3564772605896 12.04431343078613 C 1.836917877197266 12.04431343078613 1.351217269897461 11.81142330169678 1.023927688598633 11.40534400939941 C 0.7100372314453125 11.01705360412598 0.5768976211547852 10.50720405578613 0.6595373153686523 10.007643699646 L 1.018472671508789 7.821838855743408 L -0.4969520568847656 6.280023574829102 C -0.9523420333862305 5.816793441772461 -1.114522933959961 5.140443801879883 -0.9201326370239258 4.514993667602539 C -0.7200021743774414 3.872583389282227 -0.1896028518676758 3.412443161010742 0.4642677307128906 3.313493728637695 L 2.523554801940918 3.001175880432129 L 3.452297687530518 1.03675365447998 C 3.740627288818359 0.4263639450073242 4.333467483520508 0.04700374603271484 4.999307632446289 0.04700374603271484 Z" stroke="none" fill="#fff"/>
  </g>
</svg>
