<svg xmlns="http://www.w3.org/2000/svg" width="25" height="20.417" viewBox="0 0 25 20.417">
  <g id="folder_1_" data-name="folder (1)" transform="translate(0 -5.5)">
    <path id="Path_1" data-name="Path 1" d="M7,23.5a.236.236,0,0,0-.227.174L2,35.6v.417c0,.306-.02.417.235.417H20.884a1.058,1.058,0,0,0,1.021-.756l4.261-11.761V23.5Z" transform="translate(-1.165 -10.518)" fill="#7d97c7"/>
    <path id="Path_2" data-name="Path 2" d="M5.3,12.166H22.5V9.554a1.139,1.139,0,0,0-1.138-1.138H11.046L8.963,5.5H1.138A1.14,1.14,0,0,0,0,6.638V24.051L4.284,12.92A1.057,1.057,0,0,1,5.3,12.166Z" fill="#7d97c7"/>
  </g>
</svg>
