<svg xmlns="http://www.w3.org/2000/svg" width="16" height="16" viewBox="0 0 16 16">
  <g id="Group_498" data-name="Group 498" transform="translate(2333 -9408)">
    <rect id="Rectangle_397" data-name="Rectangle 397" width="16" height="16" transform="translate(-2333 9408)" fill="none"/>
    <g id="Group_848" data-name="Group 848" transform="translate(-2705 9193)">
      <path id="Path_128" data-name="Path 128" d="M381.63,216h-7.27a1.361,1.361,0,0,0-1.36,1.36v11.28a1.361,1.361,0,0,0,1.36,1.36h11.28a1.361,1.361,0,0,0,1.36-1.36V221h-5.38Zm-4.42,12.27a2.5,2.5,0,0,1-.01-5l.01.03v2.5h2.5A2.5,2.5,0,0,1,377.21,228.27Zm.81-3.32v-2.06a2.23,2.23,0,0,1,2.06,2.06Zm7.03,2.3h-3.27a.406.406,0,0,1-.41-.41.414.414,0,0,1,.41-.42h3.27a.423.423,0,0,1,.42.42A.414.414,0,0,1,385.05,227.25Zm-3.27-2.52h3.27a.414.414,0,0,1,.42.41.423.423,0,0,1-.42.42h-3.27a.414.414,0,0,1-.41-.42A.406.406,0,0,1,381.78,224.73Z" fill="#838ea1"/>
      <path id="Path_129" data-name="Path 129" d="M383,216v4h4Z" fill="#838ea1"/>
    </g>
  </g>
</svg>
