<svg xmlns="http://www.w3.org/2000/svg" width="14" height="14" viewBox="0 0 14 14"><g><g><g><path fill="#838ea1" d="M10.719 11.474c-.097 0-.172-.03-.194-.114l-.167-.584H9.352l-.167.584c-.022.084-.096.114-.193.114-.154 0-.36-.096-.36-.237 0-.009.004-.026.009-.044l.848-2.763c.04-.132.202-.194.364-.194.167 0 .33.062.37.194l.847 2.763c.005.018.009.031.009.044 0 .136-.206.237-.36.237zm1.772-5.763H7.22A1.51 1.51 0 0 0 5.711 7.22v2.865l-1.366.975a.41.41 0 0 0 0 .668l1.383.987A1.51 1.51 0 0 0 7.219 14h5.272A1.51 1.51 0 0 0 14 12.49V7.22a1.51 1.51 0 0 0-1.509-1.508z"/></g><g><path fill="#838ea1" d="M9.47 10.328h.765l-.382-1.349z"/></g><g><path fill="#838ea1" d="M4.89 7.22c0-.551.193-1.058.514-1.457a2.2 2.2 0 0 1-1.26-.395 2.2 2.2 0 0 1-1.26.395.231.231 0 0 1 0-.462c.328 0 .634-.091.897-.248a2.206 2.206 0 0 1-.578-1.272h-.319a.231.231 0 1 1 0-.463h1.029v-.561a.231.231 0 1 1 .462 0v.561h1.03a.231.231 0 0 1 0 .463h-.32c-.05.488-.261.93-.578 1.272.263.157.57.248.897.248.122 0 .222.094.23.214a2.32 2.32 0 0 1 1.586-.624h1.069v-.975l1.365-.976a.41.41 0 0 0 0-.667l-1.382-.987A1.51 1.51 0 0 0 6.78 0H1.508A1.51 1.51 0 0 0 0 1.508V6.78A1.51 1.51 0 0 0 1.508 8.29h3.383z"/></g><g><path fill="#838ea1" d="M4.144 4.764c.253-.263.425-.604.475-.983h-.95c.05.379.222.72.475.983z"/></g></g></g></svg>