<svg xmlns="http://www.w3.org/2000/svg" width="17" height="16" viewBox="0 0 17 16"><g><g><g><path fill="#838ea1" d="M11.582 3.616V.87a.794.794 0 0 0-.788-.796H1.076A.794.794 0 0 0 .288.87v11.253c0 .292.17.57.42.703l5.989 3.132a.397.397 0 0 0 .577-.359v-3.052h3.52a.794.794 0 0 0 .788-.796V7.398h-1.576v3.158c0 .226-.17.398-.394.398H7.288V4.2c0-.292-.171-.57-.42-.703L3.334 1.666h6.277c.223 0 .394.172.394.398v1.565h1.576z"/></g><g><path fill="#838ea1" d="M13.553 2.236l2.495 2.495c.32.32.32.794 0 1.114L13.553 8.34c-.32.32-.807.333-1.127.013-.307-.307-.268-.819.026-1.126l1.126-1.113H9.214a.757.757 0 0 1-.576-.256c-.358-.384-.268-1.063.192-1.319a.82.82 0 0 1 .384-.102h4.364s-1.113-1.113-1.126-1.113c-.294-.295-.333-.82-.025-1.114.307-.307.806-.294 1.126.026z"/></g></g></g></svg>