<svg xmlns="http://www.w3.org/2000/svg" width="108.306" height="46.323" viewBox="0 0 108.306 46.323">
  <g id="Group_109" data-name="Group 109" transform="translate(-33.694 -22)">
    <text id="_TM" data-name="| TM" transform="translate(90 54)" fill="#75a4ef" font-size="24" font-family="SegoeUI-Bold, Segoe UI" font-weight="700"><tspan x="0" y="0">| TM</tspan></text>
    <g id="Group_88" data-name="Group 88" transform="translate(-335.803 -120.332)">
      <g id="Group_87" data-name="Group 87" transform="translate(369.497 142.332)">
        <g id="Group_86" data-name="Group 86" transform="translate(0 0)">
          <g id="Group_84" data-name="Group 84">
            <path id="Path_11" data-name="Path 11" d="M415.8,165.493a23.194,23.194,0,1,1-7.857-17.367l-6.544,6.545a13.9,13.9,0,1,0,4.464,15.177,1.952,1.952,0,0,1,.471-.786l8.333-8.333a.4.4,0,0,1,.679.2A22.684,22.684,0,0,1,415.8,165.493Z" transform="translate(-369.497 -142.332)" fill="#333f54"/>
          </g>
          <g id="Group_85" data-name="Group 85" transform="translate(16.795 5.795)">
            <path id="Path_12" data-name="Path 12" d="M443.871,164.946a.339.339,0,0,1-.057.4l-6.859,6.859-8.127,8.359a1.96,1.96,0,0,1-1.405.594h-9.828a.334.334,0,0,1-.238-.568l15.014-15.237,6.544-6.545A23.016,23.016,0,0,1,443.871,164.946Z" transform="translate(-417.261 -158.812)" fill="#75a4ef"/>
          </g>
        </g>
      </g>
    </g>
  </g>
</svg>
