<svg xmlns="http://www.w3.org/2000/svg" width="20.036" height="19.129" viewBox="0 0 20.036 19.129">
  <g id="favourites-filled-star-symbol" transform="translate(1.017 -2.162)">
    <path id="Path_10" data-name="Path 10" d="M17.217,8.993,12.26,8.524A.857.857,0,0,1,11.55,8l-1.775-4.3a.85.85,0,0,0-1.577,0L6.437,8a.839.839,0,0,1-.71.526L.769,8.993a.857.857,0,0,0-.483,1.491l3.736,3.281a.849.849,0,0,1,.27.838L3.17,19.2a.857.857,0,0,0,1.264.938l4.133-2.429a.859.859,0,0,1,.866,0l4.133,2.429a.854.854,0,0,0,1.264-.938l-1.108-4.6a.849.849,0,0,1,.27-.838l3.736-3.281A.868.868,0,0,0,17.217,8.993Z" transform="translate(0)" fill="none" stroke="#bdcbe3" stroke-width="2"/>
  </g>
</svg>
